<?xml version="1.0" standalone="no"?>
<svg xmlns:xlink="http://www.w3.org/1999/xlink" id="wave" style="transform:rotate(0deg); transition: 0.3s" viewBox="0 0 1440 100" version="1.1" xmlns="http://www.w3.org/2000/svg"><defs><linearGradient id="sw-gradient-0" x1="0" x2="0" y1="1" y2="0"><stop stop-color="rgba(0, 0, 0, 1)" offset="0%"/><stop stop-color="rgba(0, 0, 0, 1)" offset="100%"/></linearGradient></defs><path style="transform:translate(0, 0px); opacity:1" fill="url(#sw-gradient-0)" d="M0,20L10,23.3C20,27,40,33,60,30C80,27,100,13,120,10C140,7,160,13,180,16.7C200,20,220,20,240,23.3C260,27,280,33,300,35C320,37,340,33,360,36.7C380,40,400,50,420,55C440,60,460,60,480,55C500,50,520,40,540,36.7C560,33,580,37,600,46.7C620,57,640,73,660,75C680,77,700,63,720,56.7C740,50,760,50,780,48.3C800,47,820,43,840,46.7C860,50,880,60,900,60C920,60,940,50,960,50C980,50,1000,60,1020,66.7C1040,73,1060,77,1080,66.7C1100,57,1120,33,1140,30C1160,27,1180,43,1200,48.3C1220,53,1240,47,1260,36.7C1280,27,1300,13,1320,8.3C1340,3,1360,7,1380,15C1400,23,1420,37,1430,43.3L1440,50L1440,100L1430,100C1420,100,1400,100,1380,100C1360,100,1340,100,1320,100C1300,100,1280,100,1260,100C1240,100,1220,100,1200,100C1180,100,1160,100,1140,100C1120,100,1100,100,1080,100C1060,100,1040,100,1020,100C1000,100,980,100,960,100C940,100,920,100,900,100C880,100,860,100,840,100C820,100,800,100,780,100C760,100,740,100,720,100C700,100,680,100,660,100C640,100,620,100,600,100C580,100,560,100,540,100C520,100,500,100,480,100C460,100,440,100,420,100C400,100,380,100,360,100C340,100,320,100,300,100C280,100,260,100,240,100C220,100,200,100,180,100C160,100,140,100,120,100C100,100,80,100,60,100C40,100,20,100,10,100L0,100Z"/></svg>